<svg xmlns="http://www.w3.org/2000/svg" viewBox="0 0 236 68" width="236" height="68" role="img" aria-label="Priestly">
  <defs>
    <linearGradient id="hgold" x1="0" y1="0" x2="1" y2="1">
      <stop offset="0" stop-color="#F7DE8B"/>
      <stop offset="0.5" stop-color="#E9C25A"/>
      <stop offset="1" stop-color="#C89B2E"/>
    </linearGradient>
    <radialGradient id="hgoldBead" cx="0.35" cy="0.32" r="0.75">
      <stop offset="0" stop-color="#FBE8AE"/>
      <stop offset="0.55" stop-color="#E9C25A"/>
      <stop offset="1" stop-color="#BE922A"/>
    </radialGradient>
    <!-- Wordmark + emblem outline adapt to the README's light/dark theme. -->
    <style>
      .wm-text { fill: #15171f; }
      .wm-stroke { stroke: #4a3a12; }
      @media (prefers-color-scheme: dark) {
        .wm-text { fill: #e7e9ee; }
        .wm-stroke { stroke: #ffffff; }
      }
    </style>
  </defs>

  <!-- Rosary emblem (scaled): organic dented loop + upright straight cross -->
  <g transform="translate(4 0) scale(0.70)" class="wm-stroke"
     stroke-width="1.8" stroke-linecap="round" stroke-linejoin="round">
    <path d="M40 24 C 40 13, 32 8, 23 8 C 17 8, 12 13, 11 19 C 10.2 23, 15 23.2, 16 25.2 C 17 27.2, 12.2 29, 12.6 32 C 14 37, 19 40, 26 40 C 33 40, 40 34, 40 24 Z" fill="none"/>
    <line x1="26" y1="40" x2="26" y2="54" stroke-width="2"/>
    <g fill="url(#hgoldBead)">
      <circle cx="40.0" cy="24.0" r="3.1"/>
      <circle cx="37.2" cy="14.4" r="3.1"/>
      <circle cx="30.2" cy="9.2"  r="3.1"/>
      <circle cx="22.6" cy="8.0"  r="3.1"/>
      <circle cx="15.6" cy="11.0" r="3.1"/>
      <circle cx="11.4" cy="18.2" r="3.1"/>
      <circle cx="16.2" cy="25.2" r="3.1"/>
      <circle cx="12.6" cy="31.4" r="3.1"/>
      <circle cx="18.4" cy="38.0" r="3.1"/>
      <circle cx="33.6" cy="37.0" r="3.1"/>
      <circle cx="39.0" cy="30.6" r="3.1"/>
    </g>
    <circle cx="26" cy="40" r="4.0" fill="url(#hgoldBead)"/>
    <circle cx="26" cy="49" r="2.8" fill="url(#hgoldBead)"/>
    <path d="M23 54 H29 V61 H34 V67 H29 V89 H23 V67 H18 V61 H23 Z" fill="url(#hgold)"/>
  </g>

  <!-- Wordmark: "Priestly" as vector paths (no font dependency) -->
  <g class="wm-text" fill="#15171f" transform="translate(50 18)">
    <path d="M 3.68 1.23 L 16.15 1.23 Q 21.72 1.23 24.69 3.71 Q 27.68 6.18 27.68 10.74 Q 27.68 15.34 24.69 17.81 Q 21.72 20.27 16.15 20.27 L 11.19 20.27 L 11.19 30.39 L 3.68 30.39 L 3.68 1.23 Z M 11.19 6.68 L 11.19 14.82 L 15.35 14.82 Q 17.54 14.82 18.73 13.76 Q 19.93 12.70 19.93 10.74 Q 19.93 8.79 18.73 7.74 Q 17.54 6.68 15.35 6.68 L 11.19 6.68 Z M 48.93 14.47 Q 48.01 14.04 47.10 13.84 Q 46.19 13.64 45.28 13.64 Q 42.58 13.64 41.12 15.37 Q 39.67 17.09 39.67 20.31 L 39.67 30.39 L 32.68 30.39 L 32.68 8.52 L 39.67 8.52 L 39.67 12.11 Q 41.02 9.96 42.76 8.98 Q 44.51 7.99 46.96 7.99 Q 47.31 7.99 47.71 8.02 Q 48.12 8.05 48.91 8.15 L 48.93 14.47 Z M 52.41 8.52 L 59.39 8.52 L 59.39 30.39 L 52.41 30.39 L 52.41 8.52 Z M 52.41 0.00 L 59.39 0.00 L 59.39 5.71 L 52.41 5.71 L 52.41 0.00 Z M 87.95 19.40 L 87.95 21.39 L 71.61 21.39 Q 71.86 23.85 73.38 25.08 Q 74.91 26.31 77.64 26.31 Q 79.84 26.31 82.16 25.66 Q 84.48 25.00 86.92 23.68 L 86.92 29.06 Q 84.44 30.00 81.96 30.48 Q 79.48 30.96 76.99 30.96 Q 71.06 30.96 67.76 27.94 Q 64.48 24.93 64.48 19.48 Q 64.48 14.12 67.71 11.06 Q 70.94 7.99 76.61 7.99 Q 81.76 7.99 84.86 11.10 Q 87.95 14.20 87.95 19.40 Z M 80.76 17.07 Q 80.76 15.08 79.60 13.86 Q 78.44 12.64 76.56 12.64 Q 74.53 12.64 73.26 13.78 Q 71.99 14.93 71.68 17.07 L 80.76 17.07 Z M 110.34 9.20 L 110.34 14.51 Q 108.09 13.57 106.00 13.11 Q 103.91 12.64 102.06 12.64 Q 100.06 12.64 99.09 13.14 Q 98.13 13.64 98.13 14.67 Q 98.13 15.51 98.86 15.96 Q 99.59 16.41 101.49 16.62 L 102.72 16.80 Q 108.09 17.48 109.94 19.04 Q 111.80 20.61 111.80 23.95 Q 111.80 27.44 109.22 29.21 Q 106.64 30.96 101.53 30.96 Q 99.36 30.96 97.04 30.62 Q 94.73 30.28 92.29 29.59 L 92.29 24.28 Q 94.38 25.29 96.58 25.81 Q 98.78 26.31 101.04 26.31 Q 103.09 26.31 104.12 25.75 Q 105.16 25.18 105.16 24.06 Q 105.16 23.12 104.45 22.67 Q 103.74 22.21 101.61 21.96 L 100.38 21.80 Q 95.71 21.21 93.83 19.63 Q 91.96 18.05 91.96 14.82 Q 91.96 11.35 94.34 9.68 Q 96.73 7.99 101.64 7.99 Q 103.58 7.99 105.71 8.29 Q 107.84 8.57 110.34 9.20 Z M 124.69 2.31 L 124.69 8.52 L 131.90 8.52 L 131.90 13.52 L 124.69 13.52 L 124.69 22.79 Q 124.69 24.32 125.29 24.86 Q 125.90 25.39 127.70 25.39 L 131.29 25.39 L 131.29 30.39 L 125.29 30.39 Q 121.16 30.39 119.43 28.67 Q 117.70 26.94 117.70 22.79 L 117.70 13.52 L 114.22 13.52 L 114.22 8.52 L 117.70 8.52 L 117.70 2.31 L 124.69 2.31 Z M 136.18 0.00 L 143.16 0.00 L 143.16 30.39 L 136.18 30.39 L 136.18 0.00 Z M 147.01 8.52 L 154.01 8.52 L 159.89 23.36 L 164.89 8.52 L 171.88 8.52 L 162.68 32.46 Q 161.29 36.12 159.44 37.57 Q 157.60 39.02 154.58 39.02 L 150.53 39.02 L 150.53 34.44 L 152.72 34.44 Q 154.49 34.44 155.30 33.87 Q 156.11 33.31 156.56 31.84 L 156.76 31.23 L 147.01 8.52 Z"/>
  </g>
</svg>
